<svg xmlns="http://www.w3.org/2000/svg" >
<symbol id="disk-icon">
<path fill="currentColor" d="M.5 0h2.1538v2.1538H.5zm0 2.1538h2.1538v2.1538H.5zm0 2.1538h2.1538v2.1538H.5zm0 2.1538h2.1538v2.1538H.5zm0 
2.1538h2.1538v2.1538H.5zm0 2.1538h2.1538v2.1538H.5zm0 2.1543h2.1538v2.1538H.5z"/>
<path fill="currentColor" d="M.5 15.0767h2.1538v2.1538H.5zm0 2.1543h2.1538v2.1538H.5z"/>
<path fill="currentColor" d="M.5 19.3848h2.1538v2.1538H.5zm0 2.1538h2.1538v2.1538H.5zm0 2.1538h2.1538v2.1538H.5zm0 
2.1538h2.1538V28H.5zM24.1927 0v2.1538h-2.1538V0z"/>
<path fill="currentColor" d="M22.0391 0v2.1538h-2.1538V0zm-2.155 0v2.1538h-2.1538V0z"/>
<path fill="currentColor" d="M17.7305 0v2.1538h-2.1538V0z"/>
<path fill="currentColor" d="M15.5768 0v2.1538H13.423V0z"/>
<path fill="currentColor" d="M13.4232 0v2.1538h-2.1538V0z"/>
<path fill="currentColor" d="M11.2695 0v2.1538H9.1157V0z"/>
<path fill="currentColor" d="M9.1159 0v2.1538H6.962V0zM6.961 0v2.1538H4.807V0z"/>
<path fill="currentColor" d="M4.8073 0v2.1538H2.6535V0zm21.5391 2.1538v2.1538h-2.1538V2.1538zM6.961 
4.3076v2.1538H4.8072V4.3076zm0-2.1538v2.1538H4.807V2.1538zm0 
4.3076v2.1538H4.8072V6.4614zm15.0781-2.1538v2.1538h-2.1538V4.3076zm0-2.1538v2.1538h-2.1538V2.1538zm0 
4.3076v2.1538h-2.1538V6.4614zm-4.3086-2.1538v2.1538h-2.1538V4.3076zm0-2.1538v2.1538h-2.1538V2.1538zm0 
4.3076v2.1538h-2.1538V6.4614zm4.3086 2.1538v2.1538h-2.1538V8.6152zm-2.155 0v2.1538h-2.1538V8.6152z"/>
<path fill="currentColor" d="M17.7305 8.6152v2.1538h-2.1538V8.6152z"/>
<path fill="currentColor" d="M15.5768 8.6152v2.1538H13.423V8.6152z"/>
<path fill="currentColor" d="M13.4232 8.6152v2.1538h-2.1538V8.6152z"/>
<path fill="currentColor" d="M11.2695 8.6152v2.1538H9.1157V8.6152z"/>
<path fill="currentColor" d="M9.116 8.6152v2.1538H6.962V8.6152zm-2.155 0v2.1538H4.8072V8.6152zm17.2317 6.4615v2.1538h-2.1538v-2.1538z"/>
<path fill="currentColor" d="M22.0391 15.0767v2.1538h-2.1538v-2.1538zm-2.155 0v2.1538h-2.1538v-2.1538z"/>
<path fill="currentColor" d="M17.7305 15.0767v2.1538h-2.1538v-2.1538z"/>
<path fill="currentColor" d="M15.5768 15.0767v2.1538H13.423v-2.1538z"/>
<path fill="currentColor" d="M13.4232 15.0767v2.1538h-2.1538v-2.1538z"/>
<path fill="currentColor" d="M11.2695 15.0767v2.1538H9.1157v-2.1538z"/>
<path fill="currentColor" d="M9.1159 15.0767v2.1538H6.962v-2.1538zm-2.1549 0v2.1538H4.807v-2.1538zm17.2317 
2.1543v2.1538h-2.1538V17.231zm-17.2317 0v2.1538H4.807V17.231z"/>
<path fill="currentColor" d="M24.1927 19.3848v2.1538h-2.1538v-2.1538zm-17.2317 0v2.1538H4.807v-2.1538zm17.2317 
2.1538v2.1538h-2.1538v-2.1538zm-17.2317 0v2.1538H4.807v-2.1538zm0 2.1538v2.1538H4.807v-2.1538zm17.2317 
0v2.1538h-2.1538v-2.1538zm2.1537 2.1538V28h-2.1538v-2.1538z"/>
<path fill="currentColor" d="M24.1927 25.8462V28h-2.1538v-2.1538z"/>
<path fill="currentColor" d="M22.0391 25.8462V28h-2.1538v-2.1538zm-2.155 0V28h-2.1538v-2.1538z"/>
<path fill="currentColor" d="M17.7305 25.8462V28h-2.1538v-2.1538z"/>
<path fill="currentColor" d="M15.5768 25.8462V28H13.423v-2.1538z"/>
<path fill="currentColor" d="M13.4232 25.8462V28h-2.1538v-2.1538z"/>
<path fill="currentColor" d="M11.2695 25.8462V28H9.1157v-2.1538z"/>
<path fill="currentColor" d="M9.1159 25.8462V28H6.962v-2.1538zm-2.1549 0V28H4.807v-2.1538z"/>
<path fill="currentColor" d="M4.8073 25.8462V28H2.6535v-2.1538zM28.5 28h-2.1538v-2.1538H28.5zm0-2.1538h-2.1538v-2.1538H28.5zm0-2.1538h-2.1538v-2.1538H28.5zm0-2.1538h-2.1538v-2.1538H28.5zm0-2.1538h-2.1538V17.231H28.5zm0-2.1538h-2.1538v-2.1538H28.5zm0-2.1543h-2.1538v-2.1538H28.5z"/>
<path fill="currentColor" d="M28.5 12.9233h-2.1538v-2.1538H28.5zm0-2.1543h-2.1538V8.6152H28.5z"/>
<path fill="currentColor" d="M28.5 8.6153h-2.1538V6.4615H28.5zm0-2.1538h-2.1538V4.3077H28.5z"/>
</symbol>
</svg>
